<?xml version="1.0" encoding="UTF-8" standalone="no"?>
<!-- Created with Inkscape (http://www.inkscape.org/) -->

<svg
   xmlns:dc="http://purl.org/dc/elements/1.1/"
   xmlns:cc="http://creativecommons.org/ns#"
   xmlns:rdf="http://www.w3.org/1999/02/22-rdf-syntax-ns#"
   xmlns:svg="http://www.w3.org/2000/svg"
   xmlns="http://www.w3.org/2000/svg"
   xmlns:sodipodi="http://sodipodi.sourceforge.net/DTD/sodipodi-0.dtd"
   xmlns:inkscape="http://www.inkscape.org/namespaces/inkscape"
   width="20"
   height="32"
   id="svg2"
   version="1.1"
   inkscape:version="0.47 r22583"
   sodipodi:docname="marker-green.svg"
   inkscape:export-filename="/c/temp/kde/trunk-svn/worldmapwidget2/backend-data/marker-green.png"
   inkscape:export-xdpi="90"
   inkscape:export-ydpi="90">
  <defs
     id="defs4">
    <inkscape:perspective
       sodipodi:type="inkscape:persp3d"
       inkscape:vp_x="0 : 526.18109 : 1"
       inkscape:vp_y="0 : 1000 : 0"
       inkscape:vp_z="744.09448 : 526.18109 : 1"
       inkscape:persp3d-origin="372.04724 : 350.78739 : 1"
       id="perspective10" />
  </defs>
  <sodipodi:namedview
     id="base"
     pagecolor="#ffffff"
     bordercolor="#666666"
     borderopacity="1.0"
     inkscape:pageopacity="0.0"
     inkscape:pageshadow="2"
     inkscape:zoom="2"
     inkscape:cx="37.243543"
     inkscape:cy="-15.512663"
     inkscape:document-units="px"
     inkscape:current-layer="layer1"
     showgrid="true"
     inkscape:window-width="1272"
     inkscape:window-height="627"
     inkscape:window-x="0"
     inkscape:window-y="0"
     inkscape:window-maximized="0">
    <inkscape:grid
       type="xygrid"
       id="grid2816"
       empspacing="5"
       visible="true"
       enabled="true"
       snapvisiblegridlinesonly="true"
       spacingx="0.5px"
       spacingy="0.5px"
       originx="0px"
       originy="0px" />
  </sodipodi:namedview>
  <metadata
     id="metadata7">
    <rdf:RDF>
      <cc:Work
         rdf:about="">
        <dc:format>image/svg+xml</dc:format>
        <dc:type
           rdf:resource="http://purl.org/dc/dcmitype/StillImage" />
        <dc:title></dc:title>
      </cc:Work>
    </rdf:RDF>
  </metadata>
  <g
     inkscape:label="Layer 1"
     inkscape:groupmode="layer"
     id="layer1"
     transform="translate(0,-1020.3622)">
    <path
       style="fill:#00ff00;stroke:#000000;stroke-width:1px;stroke-linecap:round;stroke-linejoin:round;stroke-opacity:1"
       d="M 10,0.5 C 4.4771525,0.5 0.5,4.4771525 0.5,10 0.5,18 8,16.5 10,31.5 12,16.5 19.5,17 19.5,10 19.5,4.4771525 15.522847,0.5 10,0.5 z"
       transform="translate(0,1020.3622)"
       id="marker-00ff00"
       sodipodi:nodetypes="ccccc"
       inkscape:label="#path2823" />
    <path
       style="fill:none;stroke:#000000;stroke-width:1px;stroke-linecap:butt;stroke-linejoin:miter;stroke-opacity:1"
       d="m 7.5,7 5,5"
       id="path3601"
       transform="translate(0,1020.3622)" />
    <path
       style="fill:none;stroke:#000000;stroke-width:1px;stroke-linecap:butt;stroke-linejoin:miter;stroke-opacity:1"
       d="M 12.625,6.9374999 7.5,12"
       id="path3603"
       transform="translate(0,1020.3622)" />
    <path
       sodipodi:nodetypes="ccccc"
       id="marker-ff7f00"
       d="m 32,1020.8622 c -5.522848,0 -9.5,3.9772 -9.5,9.5 0,8 7.5,6.5 9.5,21.5 2,-15 9.5,-14.5 9.5,-21.5 0,-5.5228 -3.977153,-9.5 -9.5,-9.5 z"
       style="fill:#ff7f00;stroke:#000000;stroke-width:1px;stroke-linecap:round;stroke-linejoin:round;stroke-opacity:1;fill-opacity:1"
       inkscape:label="#path2826" />
    <path
       id="path2828"
       d="m 29.5,1027.3622 5,5"
       style="fill:none;stroke:#000000;stroke-width:1px;stroke-linecap:butt;stroke-linejoin:miter;stroke-opacity:1" />
    <path
       id="path2830"
       d="m 34.625,1027.2997 -5.125,5.0625"
       style="fill:none;stroke:#000000;stroke-width:1px;stroke-linecap:butt;stroke-linejoin:miter;stroke-opacity:1" />
    <path
       sodipodi:nodetypes="ccccc"
       id="marker-ffff00"
       d="m 54,1020.8622 c -5.522847,0 -9.5,3.9772 -9.5,9.5 0,8 7.5,6.5 9.5,21.5 2,-15 9.5,-14.5 9.5,-21.5 0,-5.5228 -3.977153,-9.5 -9.5,-9.5 z"
       style="fill:#ffff00;stroke:#000000;stroke-width:1px;stroke-linecap:round;stroke-linejoin:round;stroke-opacity:1;fill-opacity:1"
       inkscape:label="#path2832" />
    <path
       id="path2834"
       d="m 51.5,1027.3622 5,5"
       style="fill:none;stroke:#000000;stroke-width:1px;stroke-linecap:butt;stroke-linejoin:miter;stroke-opacity:1" />
    <path
       id="path2836"
       d="m 56.625,1027.2997 -5.125,5.0625"
       style="fill:none;stroke:#000000;stroke-width:1px;stroke-linecap:butt;stroke-linejoin:miter;stroke-opacity:1" />
    <path
       style="fill:#ff0000;stroke:#000000;stroke-width:1px;stroke-linecap:round;stroke-linejoin:round;stroke-opacity:1;fill-opacity:1"
       d="m 76,1020.8622 c -5.522848,0 -9.5,3.9772 -9.5,9.5 0,8 7.5,6.5 9.5,21.5 2,-15 9.5,-14.5 9.5,-21.5 0,-5.5228 -3.977153,-9.5 -9.5,-9.5 z"
       id="marker-ff0000"
       sodipodi:nodetypes="ccccc"
       inkscape:label="#path2838" />
    <path
       style="fill:none;stroke:#000000;stroke-width:1px;stroke-linecap:butt;stroke-linejoin:miter;stroke-opacity:1"
       d="m 73.5,1027.3622 5,5"
       id="path2840" />
    <path
       style="fill:none;stroke:#000000;stroke-width:1px;stroke-linecap:butt;stroke-linejoin:miter;stroke-opacity:1"
       d="m 78.625,1027.2997 -5.125,5.0625"
       id="path2842" />
    <path
       sodipodi:nodetypes="ccccc"
       id="marker-00ffff"
       d="m 98,1020.8622 c -5.522848,0 -9.5,3.9772 -9.5,9.5 0,8 7.5,6.5 9.5,21.5 2,-15 9.5,-14.5 9.5,-21.5 0,-5.5228 -3.97715,-9.5 -9.5,-9.5 z"
       style="fill:#00ffff;stroke:#000000;stroke-width:1px;stroke-linecap:round;stroke-linejoin:round;stroke-opacity:1;fill-opacity:1"
       inkscape:label="#path2844" />
    <path
       id="path2846"
       d="m 95.5,1027.3622 5,5"
       style="fill:none;stroke:#000000;stroke-width:1px;stroke-linecap:butt;stroke-linejoin:miter;stroke-opacity:1" />
    <path
       id="path2848"
       d="m 100.625,1027.2997 -5.125,5.0625"
       style="fill:none;stroke:#000000;stroke-width:1px;stroke-linecap:butt;stroke-linejoin:miter;stroke-opacity:1" />
    <path
       sodipodi:nodetypes="ccccc"
       id="marker-00ff00-selected"
       d="m 10,1054.8622 c -5.5228475,0 -9.5,3.9772 -9.5,9.5 0,8 7.5,6.5 9.5,21.5 2,-15 9.5,-14.5 9.5,-21.5 0,-5.5228 -3.977153,-9.5 -9.5,-9.5 z"
       style="fill:#00ff00;stroke:#0000ff;stroke-width:1px;stroke-linecap:round;stroke-linejoin:round;stroke-opacity:1"
       inkscape:label="#path4158" />
    <path
       id="path4160"
       d="m 7.5,1061.3622 5,5"
       style="fill:none;stroke:#000000;stroke-width:1px;stroke-linecap:butt;stroke-linejoin:miter;stroke-opacity:1" />
    <path
       id="path4162"
       d="M 12.625,1061.2997 7.5,1066.3622"
       style="fill:none;stroke:#000000;stroke-width:1px;stroke-linecap:butt;stroke-linejoin:miter;stroke-opacity:1" />
    <path
       style="fill:#ff7f00;fill-opacity:1;stroke:#0000ff;stroke-width:1px;stroke-linecap:round;stroke-linejoin:round;stroke-opacity:1"
       d="m 32,1054.8622 c -5.522848,0 -9.5,3.9772 -9.5,9.5 0,8 7.5,6.5 9.5,21.5 2,-15 9.5,-14.5 9.5,-21.5 0,-5.5228 -3.977153,-9.5 -9.5,-9.5 z"
       id="marker-ff7f00-selected"
       sodipodi:nodetypes="ccccc"
       inkscape:label="#path4164" />
    <path
       style="fill:none;stroke:#000000;stroke-width:1px;stroke-linecap:butt;stroke-linejoin:miter;stroke-opacity:1"
       d="m 29.5,1061.3622 5,5"
       id="path4166" />
    <path
       style="fill:none;stroke:#000000;stroke-width:1px;stroke-linecap:butt;stroke-linejoin:miter;stroke-opacity:1"
       d="m 34.625,1061.2997 -5.125,5.0625"
       id="path4168" />
    <path
       style="fill:#ffff00;fill-opacity:1;stroke:#0000ff;stroke-width:1px;stroke-linecap:round;stroke-linejoin:round;stroke-opacity:1"
       d="m 54,1054.8622 c -5.522847,0 -9.5,3.9772 -9.5,9.5 0,8 7.5,6.5 9.5,21.5 2,-15 9.5,-14.5 9.5,-21.5 0,-5.5228 -3.977153,-9.5 -9.5,-9.5 z"
       id="marker-ffff00-selected"
       sodipodi:nodetypes="ccccc"
       inkscape:label="#path4170" />
    <path
       style="fill:none;stroke:#000000;stroke-width:1px;stroke-linecap:butt;stroke-linejoin:miter;stroke-opacity:1"
       d="m 51.5,1061.3622 5,5"
       id="path4172" />
    <path
       style="fill:none;stroke:#000000;stroke-width:1px;stroke-linecap:butt;stroke-linejoin:miter;stroke-opacity:1"
       d="m 56.625,1061.2997 -5.125,5.0625"
       id="path4174" />
    <path
       sodipodi:nodetypes="ccccc"
       id="marker-ff0000-selected"
       d="m 76,1054.8622 c -5.522848,0 -9.5,3.9772 -9.5,9.5 0,8 7.5,6.5 9.5,21.5 2,-15 9.5,-14.5 9.5,-21.5 0,-5.5228 -3.977153,-9.5 -9.5,-9.5 z"
       style="fill:#ff0000;fill-opacity:1;stroke:#0000ff;stroke-width:1px;stroke-linecap:round;stroke-linejoin:round;stroke-opacity:1"
       inkscape:label="#path4176" />
    <path
       id="path4178"
       d="m 73.5,1061.3622 5,5"
       style="fill:none;stroke:#000000;stroke-width:1px;stroke-linecap:butt;stroke-linejoin:miter;stroke-opacity:1" />
    <path
       id="path4180"
       d="m 78.625,1061.2997 -5.125,5.0625"
       style="fill:none;stroke:#000000;stroke-width:1px;stroke-linecap:butt;stroke-linejoin:miter;stroke-opacity:1" />
    <path
       style="fill:#00ffff;fill-opacity:1;stroke:#0000ff;stroke-width:1px;stroke-linecap:round;stroke-linejoin:round;stroke-opacity:1"
       d="m 98,1054.8622 c -5.522848,0 -9.5,3.9772 -9.5,9.5 0,8 7.5,6.5 9.5,21.5 2,-15 9.5,-14.5 9.5,-21.5 0,-5.5228 -3.97715,-9.5 -9.5,-9.5 z"
       id="marker-00ffff-selected"
       sodipodi:nodetypes="ccccc"
       inkscape:label="#path4182" />
    <path
       style="fill:none;stroke:#000000;stroke-width:1px;stroke-linecap:butt;stroke-linejoin:miter;stroke-opacity:1"
       d="m 95.5,1061.3622 5,5"
       id="path4184" />
    <path
       style="fill:none;stroke:#000000;stroke-width:1px;stroke-linecap:butt;stroke-linejoin:miter;stroke-opacity:1"
       d="m 100.625,1061.2997 -5.125,5.0625"
       id="path4186" />
    <path
       style="fill:#00ff00;stroke:#0000ff;stroke-width:1;stroke-linecap:round;stroke-linejoin:round;stroke-opacity:1;stroke-miterlimit:4;stroke-dasharray:4,4;stroke-dashoffset:0"
       d="m 10,1088.8622 c -5.5228475,0 -9.5,3.9772 -9.5,9.5 0,8 7.5,6.5 9.5,21.5 2,-15 9.5,-14.5 9.5,-21.5 0,-5.5228 -3.977153,-9.5 -9.5,-9.5 z"
       id="marker-00ff00-someselected"
       sodipodi:nodetypes="ccccc"
       inkscape:label="#path4188" />
    <path
       style="fill:none;stroke:#000000;stroke-width:1px;stroke-linecap:butt;stroke-linejoin:miter;stroke-opacity:1"
       d="m 7.5,1095.3622 5,5"
       id="path4190" />
    <path
       style="fill:none;stroke:#000000;stroke-width:1px;stroke-linecap:butt;stroke-linejoin:miter;stroke-opacity:1"
       d="M 12.625,1095.2997 7.5,1100.3622"
       id="path4192" />
    <path
       sodipodi:nodetypes="ccccc"
       id="marker-ff7f00-someselected"
       d="m 32,1088.8622 c -5.522848,0 -9.5,3.9772 -9.5,9.5 0,8 7.5,6.5 9.5,21.5 2,-15 9.5,-14.5 9.5,-21.5 0,-5.5228 -3.977153,-9.5 -9.5,-9.5 z"
       style="fill:#ff7f00;fill-opacity:1;stroke:#0000ff;stroke-width:1;stroke-linecap:round;stroke-linejoin:round;stroke-opacity:1;stroke-miterlimit:4;stroke-dasharray:4,4;stroke-dashoffset:0"
       inkscape:label="#path4194" />
    <path
       id="path4196"
       d="m 29.5,1095.3622 5,5"
       style="fill:none;stroke:#000000;stroke-width:1px;stroke-linecap:butt;stroke-linejoin:miter;stroke-opacity:1" />
    <path
       id="path4198"
       d="m 34.625,1095.2997 -5.125,5.0625"
       style="fill:none;stroke:#000000;stroke-width:1px;stroke-linecap:butt;stroke-linejoin:miter;stroke-opacity:1" />
    <path
       sodipodi:nodetypes="ccccc"
       id="marker-ffff00-someselected"
       d="m 54,1088.8622 c -5.522847,0 -9.5,3.9772 -9.5,9.5 0,8 7.5,6.5 9.5,21.5 2,-15 9.5,-14.5 9.5,-21.5 0,-5.5228 -3.977153,-9.5 -9.5,-9.5 z"
       style="fill:#ffff00;fill-opacity:1;stroke:#0000ff;stroke-width:1;stroke-linecap:round;stroke-linejoin:round;stroke-opacity:1;stroke-miterlimit:4;stroke-dasharray:4,4;stroke-dashoffset:0"
       inkscape:label="#path4200" />
    <path
       id="path4202"
       d="m 51.5,1095.3622 5,5"
       style="fill:none;stroke:#000000;stroke-width:1px;stroke-linecap:butt;stroke-linejoin:miter;stroke-opacity:1" />
    <path
       id="path4204"
       d="m 56.625,1095.2997 -5.125,5.0625"
       style="fill:none;stroke:#000000;stroke-width:1px;stroke-linecap:butt;stroke-linejoin:miter;stroke-opacity:1" />
    <path
       style="fill:#ff0000;fill-opacity:1;stroke:#0000ff;stroke-width:1;stroke-linecap:round;stroke-linejoin:round;stroke-opacity:1;stroke-miterlimit:4;stroke-dasharray:4,4;stroke-dashoffset:0"
       d="m 76,1088.8622 c -5.522848,0 -9.5,3.9772 -9.5,9.5 0,8 7.5,6.5 9.5,21.5 2,-15 9.5,-14.5 9.5,-21.5 0,-5.5228 -3.977153,-9.5 -9.5,-9.5 z"
       id="marker-ff0000-someselected"
       sodipodi:nodetypes="ccccc"
       inkscape:label="#path4206" />
    <path
       style="fill:none;stroke:#000000;stroke-width:1px;stroke-linecap:butt;stroke-linejoin:miter;stroke-opacity:1"
       d="m 73.5,1095.3622 5,5"
       id="path4208" />
    <path
       style="fill:none;stroke:#000000;stroke-width:1px;stroke-linecap:butt;stroke-linejoin:miter;stroke-opacity:1"
       d="m 78.625,1095.2997 -5.125,5.0625"
       id="path4210" />
    <path
       sodipodi:nodetypes="ccccc"
       id="marker-00ffff-someselected"
       d="m 98,1088.8622 c -5.522848,0 -9.5,3.9772 -9.5,9.5 0,8 7.5,6.5 9.5,21.5 2,-15 9.5,-14.5 9.5,-21.5 0,-5.5228 -3.97715,-9.5 -9.5,-9.5 z"
       style="fill:#00ffff;fill-opacity:1;stroke:#0000ff;stroke-width:1;stroke-linecap:round;stroke-linejoin:round;stroke-opacity:1;stroke-miterlimit:4;stroke-dasharray:4,4;stroke-dashoffset:0"
       inkscape:label="#path4212" />
    <path
       id="path4214"
       d="m 95.5,1095.3622 5,5"
       style="fill:none;stroke:#000000;stroke-width:1px;stroke-linecap:butt;stroke-linejoin:miter;stroke-opacity:1" />
    <path
       id="path4216"
       d="m 100.625,1095.2997 -5.125,5.0625"
       style="fill:none;stroke:#000000;stroke-width:1px;stroke-linecap:butt;stroke-linejoin:miter;stroke-opacity:1" />
  </g>
</svg>
